<svg width="310" height="389" viewBox="0 0 310 389" fill="none" xmlns="http://www.w3.org/2000/svg">
<path d="M309.496 52.8763L237.664 0V32.966H132.169C130.82 32.966 98.8325 33.1486 66.814 49.2193C36.3349 64.5187 0 96.9664 0 164.659V286.536L41.3963 256.173V164.659C41.3963 126.705 56.0263 99.8638 84.8799 84.8765C107.921 72.9103 132.015 72.5629 132.163 72.557H237.657V105.558L309.49 52.8822L309.496 52.8763Z" fill="url(#paint0_linear_102_3)"/>
<path d="M108.106 43.8192C94.7625 43.8192 81.7889 45.3091 69.3139 48.0357C68.4827 48.4302 67.6514 48.7953 66.8202 49.2134C36.341 64.5128 0.00616455 96.9605 0.00616455 164.653V286.53L41.4024 256.167V164.653C41.4024 126.699 56.0324 99.8579 84.886 84.8707C107.927 72.9044 132.021 72.557 132.169 72.5511H205.676C177.875 54.4251 144.287 43.8192 108.106 43.8192Z" fill="url(#paint1_linear_102_3)"/>
<path d="M41.4086 256.173V192.514C16.6558 211.329 0.738892 240.308 0.738892 272.891C0.738892 277.119 1.09602 281.259 1.6194 285.352L41.4086 256.173Z" fill="url(#paint2_linear_102_3)"/>
<path d="M0.00616455 335.661L71.8385 388.537V355.571H177.333C178.682 355.571 210.67 355.389 242.688 339.318C273.167 324.018 309.502 291.571 309.502 223.878V102.001L268.106 132.365V223.878C268.106 261.832 253.476 288.673 224.622 303.661C201.581 315.627 177.487 315.974 177.339 315.98H71.8446V282.979L0.0123092 335.655L0.00616455 335.661Z" fill="url(#paint3_linear_102_3)"/>
<path d="M201.396 344.718C214.74 344.718 227.713 343.228 240.188 340.501C241.019 340.107 241.851 339.742 242.682 339.324C273.161 324.024 309.496 291.577 309.496 223.884V102.007L268.1 132.37V223.884C268.1 261.838 253.47 288.679 224.616 303.666C201.575 315.633 177.481 315.98 177.333 315.986H103.826C131.627 334.112 165.216 344.718 201.396 344.718Z" fill="url(#paint4_linear_102_3)"/>
<path d="M268.1 132.365V196.023C292.852 177.208 308.769 148.229 308.769 115.646C308.769 111.418 308.412 107.278 307.889 103.185L268.1 132.365Z" fill="url(#paint5_linear_102_3)"/>
<path d="M171.293 256.061H140.715C138.862 256.061 137.359 254.624 137.359 252.851C137.359 250.042 133.813 248.552 131.707 250.513C126.307 255.548 119.084 258.063 110.039 258.063C98.3399 258.063 88.8514 253.693 81.5733 244.954C74.2953 236.215 70.6562 223.519 70.6562 206.859C70.6562 191.289 74.3137 178.922 81.6226 169.771C88.9314 160.619 98.6047 156.038 110.636 156.038C118.099 156.038 124.583 158.058 130.1 162.098C132.292 163.705 135.463 162.168 135.463 159.53V129.114C135.463 127.341 136.965 125.904 138.819 125.904H171.293C173.146 125.904 174.649 127.341 174.649 129.114V252.851C174.649 254.624 173.146 256.061 171.293 256.061ZM135.463 193.703C135.463 184.994 131.707 180.642 124.195 180.642C118.943 180.642 115.507 183.409 113.875 188.939C112.243 194.469 111.431 201.241 111.431 209.25C111.431 224.95 115.618 232.8 123.992 232.8C127.181 232.8 129.891 231.563 132.119 229.084C134.348 226.604 135.457 222.824 135.457 217.736V193.709L135.463 193.703Z" fill="#164193"/>
<path d="M225.152 125.021V148.736C225.152 150.508 223.649 151.945 221.796 151.945H188.725C186.871 151.945 185.369 150.508 185.369 148.736V125.021C185.369 123.249 186.871 121.812 188.725 121.812H221.796C223.649 121.812 225.152 123.249 225.152 125.021ZM225.152 162.298V252.851C225.152 254.624 223.649 256.061 221.796 256.061H188.725C186.871 256.061 185.369 254.624 185.369 252.851V162.298C185.369 160.525 186.871 159.088 188.725 159.088H221.796C223.649 159.088 225.152 160.525 225.152 162.298Z" fill="#164193"/>
<defs>
<linearGradient id="paint0_linear_102_3" x1="0.00615741" y1="143.265" x2="309.496" y2="143.265" gradientUnits="userSpaceOnUse">
<stop stop-color="#FCE672"/>
<stop offset="0.41" stop-color="#FBE56F"/>
<stop offset="0.63" stop-color="#FBE467"/>
<stop offset="0.8" stop-color="#FBE35A"/>
<stop offset="0.95" stop-color="#FAE047"/>
<stop offset="1" stop-color="#FAE03F"/>
</linearGradient>
<linearGradient id="paint1_linear_102_3" x1="0.00616455" y1="165.177" x2="205.682" y2="165.177" gradientUnits="userSpaceOnUse">
<stop stop-color="#FAE03F"/>
<stop offset="1" stop-color="#FFCF00"/>
</linearGradient>
<linearGradient id="paint2_linear_102_3" x1="0.738892" y1="238.93" x2="41.4086" y2="238.93" gradientUnits="userSpaceOnUse">
<stop stop-color="#FFCF00"/>
<stop offset="0.53" stop-color="#FECC00"/>
<stop offset="0.81" stop-color="#FCC400"/>
<stop offset="1" stop-color="#FABA00"/>
</linearGradient>
<linearGradient id="paint3_linear_102_3" x1="309.496" y1="245.272" x2="0.0123257" y2="245.272" gradientUnits="userSpaceOnUse">
<stop stop-color="#81CEF4"/>
<stop offset="1" stop-color="#1D9CD8"/>
</linearGradient>
<linearGradient id="paint4_linear_102_3" x1="309.496" y1="223.36" x2="103.826" y2="223.36" gradientUnits="userSpaceOnUse">
<stop stop-color="#25A5DE"/>
<stop offset="1" stop-color="#055696"/>
</linearGradient>
<linearGradient id="paint5_linear_102_3" x1="308.769" y1="149.607" x2="268.1" y2="149.607" gradientUnits="userSpaceOnUse">
<stop stop-color="#25A5DE"/>
<stop offset="1" stop-color="#055696"/>
</linearGradient>
</defs>
</svg>
